<?xml version="1.0" encoding="UTF-8" standalone="no"?><!DOCTYPE svg PUBLIC "-//W3C//DTD SVG 1.1//EN" "http://www.w3.org/Graphics/SVG/1.1/DTD/svg11.dtd"><svg width="100%" height="100%" viewBox="0 0 75 75" version="1.1" xmlns="http://www.w3.org/2000/svg" xmlns:xlink="http://www.w3.org/1999/xlink" xml:space="preserve" xmlns:serif="http://www.serif.com/" style="fill-rule:evenodd;clip-rule:evenodd;stroke-linejoin:round;stroke-miterlimit:2;"><g><path d="M73.891,59.64l-2.203,-0l-0,1.497l2.553,0l0,0.803l-3.605,0l-0,-5.226l3.605,-0l0,0.801l-2.553,-0l-0,1.323l2.203,0l0,0.802Zm-3.85,-2.125l-1.471,-0l0,4.425l-1.085,0l0,-4.425l-1.471,-0l0,-0.801l4.027,-0l0,0.801Zm-7.142,2.509l1.331,-0l-0.666,-2.091l-0.665,2.091Zm1.576,0.8l-1.821,-0l-0.385,1.116l-1.051,0l1.821,-5.226l1.086,-0l1.785,5.226l-1.051,0l-0.384,-1.116Zm-5.846,0.313l2.345,0l0,0.803l-3.396,0l-0,-5.226l1.051,-0l0,4.423Zm-4.832,-1.914l1.051,-0c0.279,-0 0.524,-0.071 0.665,-0.211c0.14,-0.174 0.243,-0.383 0.243,-0.626c0,-0.244 -0.103,-0.453 -0.243,-0.628c-0.141,-0.174 -0.386,-0.243 -0.665,-0.243l-1.051,-0l0,1.708Zm0,0.835l0,1.882l-1.051,0l-0,-5.226l2.102,-0c0.594,-0 1.085,0.139 1.434,0.452c0.35,0.313 0.526,0.698 0.526,1.22c-0,0.487 -0.176,0.906 -0.526,1.219c-0.349,0.278 -0.84,0.453 -1.434,0.453l-1.051,0Zm-6.127,-3.344l1.33,3.868l0.035,-0l1.331,-3.868l1.399,-0l-0,5.226l-1.048,0l0,-1.569l0.105,-2.299l-0.036,0l-1.4,3.868l-0.735,0l-1.4,-3.868l0.105,2.299l-0,1.569l-1.086,0l-0,-5.226l1.4,-0Zm-2.415,2.926l-2.17,-0l-0,1.497l2.555,0l0,0.803l-3.606,0l0,-5.226l3.606,-0l0,0.801l-2.555,-0l-0,1.323l2.17,0l-0,0.802Zm-3.817,-2.125l-1.505,-0l0,4.425l-1.05,0l0,-4.425l-1.471,-0l0,-0.801l4.026,-0l0,0.801Zm-9.312,1.531l0.91,0c0.28,0 0.49,-0.069 0.667,-0.173c0.14,-0.139 0.209,-0.313 0.209,-0.557c-0,-0.244 -0.069,-0.452 -0.209,-0.593c-0.177,-0.139 -0.387,-0.208 -0.667,-0.208l-0.91,-0l-0,1.531Zm-0,0.803l-0,2.091l-1.085,0l0,-5.226l1.995,-0c0.596,-0 1.086,0.139 1.401,0.417c0.35,0.244 0.525,0.627 0.525,1.115c-0,0.28 -0.07,0.523 -0.21,0.696c-0.14,0.21 -0.35,0.35 -0.63,0.49c0.315,0.103 0.525,0.242 0.665,0.451c0.139,0.209 0.211,0.488 0.211,0.803l-0,0.382c-0,0.14 -0,0.279 0.07,0.453c0.034,0.174 0.106,0.28 0.175,0.35l-0,0.069l-1.086,0c-0.07,-0.069 -0.139,-0.21 -0.175,-0.385c-0.035,-0.174 -0.035,-0.347 -0.035,-0.487l0,-0.382c0,-0.28 -0.07,-0.454 -0.21,-0.628c-0.175,-0.141 -0.35,-0.209 -0.63,-0.209l-0.981,-0Zm-4.586,0.175l1.331,-0l-0.631,-2.091l-0.036,0l-0.664,2.091Zm1.61,0.8l-1.854,-0l-0.352,1.116l-1.084,0l1.82,-5.226l1.085,-0l1.785,5.226l-1.05,0l-0.35,-1.116Zm-5.88,0.313l2.344,0l0,0.803l-3.395,0l-0,-5.226l1.051,-0l-0,4.423Zm-1.961,-4.423l-0,3.483c-0,0.592 -0.21,1.046 -0.595,1.358c-0.387,0.316 -0.91,0.454 -1.542,0.454c-0.629,0 -1.119,-0.138 -1.504,-0.454c-0.386,-0.312 -0.595,-0.766 -0.595,-1.358l0,-3.483l1.05,-0l0,3.483c0,0.314 0.105,0.592 0.281,0.767c0.209,0.173 0.454,0.244 0.768,0.244c0.351,-0 0.596,-0.071 0.771,-0.244c0.211,-0.175 0.28,-0.418 0.28,-0.767l-0,-3.483l1.086,-0Zm-7.983,0.801l-0,3.622l0.701,0c0.385,0 0.665,-0.138 0.875,-0.383c0.244,-0.243 0.35,-0.592 0.35,-1.009l-0,-0.872c-0,-0.382 -0.106,-0.731 -0.35,-0.974c-0.21,-0.245 -0.49,-0.384 -0.875,-0.384l-0.701,-0Zm-1.05,4.425l0,-5.226l1.821,-0c0.629,-0 1.155,0.208 1.575,0.592c0.421,0.417 0.63,0.94 0.63,1.602l-0,0.871c-0,0.627 -0.209,1.15 -0.63,1.568c-0.42,0.383 -0.946,0.593 -1.575,0.593l-1.821,0Zm-1.89,-3.102c0,-0.418 -0.105,-0.731 -0.316,-1.011c-0.174,-0.243 -0.489,-0.382 -0.839,-0.382c-0.35,-0 -0.631,0.139 -0.841,0.382c-0.174,0.28 -0.28,0.593 -0.28,1.011l-0,0.976c-0,0.418 0.106,0.732 0.28,1.01c0.21,0.244 0.491,0.384 0.841,0.384c0.384,-0 0.665,-0.14 0.874,-0.384c0.176,-0.278 0.281,-0.592 0.281,-1.01l0,-0.976Zm1.049,0.976c-0,0.627 -0.174,1.15 -0.594,1.567c-0.42,0.42 -0.945,0.628 -1.61,0.628c-0.631,0 -1.156,-0.208 -1.576,-0.628c-0.385,-0.417 -0.596,-0.94 -0.596,-1.567l0,-0.941c0,-0.661 0.211,-1.184 0.596,-1.602c0.42,-0.418 0.945,-0.626 1.576,-0.626c0.665,-0 1.19,0.208 1.61,0.626c0.384,0.418 0.594,0.941 0.594,1.602l-0,0.941Zm-9.312,-3.1l1.331,3.868l0.034,-0l1.366,-3.868l1.367,-0l-0,5.226l-1.052,0l0,-1.569l0.106,-2.299l-0.035,0l-1.401,3.868l-0.7,0l-1.401,-3.868l-0.034,0l0.104,2.299l-0,1.569l-1.049,0l-0,-5.226l1.364,-0Z" style="fill:#030404;fill-rule:nonzero;"/><path d="M53.797,36.576l-7.702,0l0,7.665l7.702,0l0,-7.665Zm-7.772,-0.487l7.807,-0c0.141,-0 0.245,0.069 0.315,0.14c0.07,0.069 0.14,0.173 0.14,0.278l0,7.805c0,0.103 -0.07,0.208 -0.14,0.277c-0.07,0.07 -0.174,0.139 -0.315,0.139l-7.807,0c-0.105,0 -0.209,-0.069 -0.28,-0.139c-0.07,-0.069 -0.14,-0.174 -0.14,-0.277l0,-7.805c0,-0.105 0.07,-0.209 0.14,-0.278c0.071,-0.071 0.175,-0.14 0.28,-0.14Zm-5.041,0.487l-7.738,0l0,7.665l7.738,0l-0,-7.665Zm-7.773,-0.487l7.808,-0c0.104,-0 0.209,0.069 0.314,0.14c0.07,0.069 0.105,0.173 0.105,0.278l0,7.805c0,0.103 -0.035,0.208 -0.105,0.277c-0.105,0.07 -0.21,0.139 -0.314,0.139l-7.808,0c-0.104,0 -0.209,-0.069 -0.314,-0.139c-0.07,-0.069 -0.105,-0.174 -0.105,-0.277l0,-7.805c0,-0.105 0.035,-0.209 0.105,-0.278c0.105,-0.071 0.21,-0.14 0.314,-0.14Zm-5.077,0.487l-7.701,0l0,7.665l7.701,0l0,-7.665Zm-7.737,-0.487l7.807,-0c0.106,-0 0.211,0.069 0.281,0.14c0.106,0.069 0.141,0.173 0.141,0.278l-0,7.805c-0,0.103 -0.035,0.208 -0.141,0.277c-0.07,0.07 -0.175,0.139 -0.281,0.139l-7.807,0c-0.139,0 -0.243,-0.069 -0.313,-0.139c-0.071,-0.069 -0.106,-0.174 -0.106,-0.277l-0,-7.805c-0,-0.105 0.035,-0.209 0.106,-0.278c0.07,-0.071 0.174,-0.14 0.313,-0.14Zm33.4,-10.452l-7.702,0l0,7.665l7.702,0l0,-7.665Zm-7.772,-0.488l7.807,-0c0.141,-0 0.245,0.069 0.315,0.139c0.07,0.071 0.14,0.175 0.14,0.28l0,7.769c0,0.139 -0.07,0.243 -0.14,0.313c-0.07,0.07 -0.174,0.14 -0.315,0.14l-7.807,-0c-0.105,-0 -0.209,-0.07 -0.28,-0.14c-0.07,-0.07 -0.14,-0.174 -0.14,-0.313l0,-7.769c0,-0.105 0.07,-0.209 0.14,-0.28c0.071,-0.07 0.175,-0.139 0.28,-0.139Zm-5.041,0.488l-7.738,0l0,7.665l7.738,0l-0,-7.665Zm-7.773,-0.488l7.808,-0c0.104,-0 0.209,0.069 0.314,0.139c0.07,0.071 0.105,0.175 0.105,0.28l0,7.769c0,0.139 -0.035,0.243 -0.105,0.313c-0.105,0.07 -0.21,0.14 -0.314,0.14l-7.808,-0c-0.104,-0 -0.209,-0.07 -0.314,-0.14c-0.07,-0.07 -0.105,-0.174 -0.105,-0.313l0,-7.769c0,-0.105 0.035,-0.209 0.105,-0.28c0.105,-0.07 0.21,-0.139 0.314,-0.139Zm-12.814,0.245l7.807,0c0.106,0 0.176,0.069 0.176,0.174l-0,7.769c-0,0.104 -0.07,0.208 -0.176,0.208l-7.807,0c-0.104,0 -0.209,-0.104 -0.209,-0.208l-0,-7.769c-0,-0.105 0.105,-0.174 0.209,-0.174Zm26.364,-9.721l2.45,0l-0,2.299l-2.45,0l0,-2.299Zm4.025,0l2.45,0l0,2.299l-2.45,0l0,-2.299Zm4.026,0l2.451,0l0,2.299l-2.451,0l0,-2.299Zm-40.19,-2.682l44.986,-0l-0,7.664l-44.986,-0l-0,-7.664Zm44.986,8.745l-0,27.452l-44.986,0l-0,-27.452l44.986,-0Z" style="fill:#211e1f;"/></g></svg>