<?xml version="1.0" encoding="UTF-8" standalone="no"?><!DOCTYPE svg PUBLIC "-//W3C//DTD SVG 1.1//EN" "http://www.w3.org/Graphics/SVG/1.1/DTD/svg11.dtd"><svg width="100%" height="100%" viewBox="0 0 500 500" version="1.1" xmlns="http://www.w3.org/2000/svg" xmlns:xlink="http://www.w3.org/1999/xlink" xml:space="preserve" xmlns:serif="http://www.serif.com/" style="fill-rule:evenodd;clip-rule:evenodd;stroke-linejoin:round;stroke-miterlimit:2;"><g><path d="M474.847,250c0,124.181 -100.667,224.848 -224.847,224.848c-124.179,-0 -224.847,-100.667 -224.847,-224.848c-0,-124.179 100.668,-224.848 224.847,-224.848c124.18,0 224.847,100.669 224.847,224.848Z" style="fill:#231f20;"/><path d="M207.845,419.661l61.34,0l-0,-141.5l45.308,-0l9.062,-57.158l-54.37,-0l-0,-43.217c-0,-16.032 15.335,-25.094 29.972,-25.094l26.489,-0l-0,-47.4l-47.4,-2.09c-45.308,-2.788 -70.401,32.761 -70.401,75.281l-0,42.52l-51.582,-0l-0,57.158l51.582,-0l-0,141.5Z" style="fill:#fff;"/></g></svg>