<?xml version="1.0" encoding="UTF-8" standalone="no"?><!DOCTYPE svg PUBLIC "-//W3C//DTD SVG 1.1//EN" "http://www.w3.org/Graphics/SVG/1.1/DTD/svg11.dtd"><svg width="100%" height="100%" viewBox="0 0 500 500" version="1.1" xmlns="http://www.w3.org/2000/svg" xmlns:xlink="http://www.w3.org/1999/xlink" xml:space="preserve" xmlns:serif="http://www.serif.com/" style="fill-rule:evenodd;clip-rule:evenodd;stroke-linejoin:round;stroke-miterlimit:2;"><g><path d="M474.848,250c0,124.181 -100.67,224.848 -224.85,224.848c-124.178,-0 -224.846,-100.667 -224.846,-224.848c-0,-124.179 100.668,-224.848 224.846,-224.848c124.18,0 224.85,100.669 224.85,224.848Z" style="fill:#231f20;"/><path d="M184.548,131.442l130.9,-0c29.47,-0 53.45,23.985 53.45,53.454l-0,130.208c-0,29.469 -23.98,53.456 -53.45,53.456l-130.9,-0c-29.46,-0 -53.45,-23.987 -53.45,-53.456l-0,-130.208c-0,-29.469 23.99,-53.454 53.45,-53.454Zm65.11,67.16l0.68,-0c28.1,-0 51.4,23.3 51.4,51.398c-0,28.784 -23.3,52.083 -51.4,52.083l-0.68,0c-28.1,0 -51.4,-23.299 -51.4,-52.083c-0,-28.098 23.3,-51.398 51.4,-51.398Zm-0,-26.727l0.68,-0c42.49,-0 78.13,35.635 78.13,78.125c0,43.174 -35.64,78.125 -78.13,78.125l-0.68,0c-42.49,0 -77.44,-34.951 -77.44,-78.125c-0,-42.49 34.95,-78.125 77.44,-78.125Zm77.44,-15.078c8.91,0 16.45,7.54 16.45,16.448c-0,8.91 -7.54,16.448 -16.45,16.448c-9.59,-0 -16.45,-7.538 -16.45,-16.448c-0,-8.908 6.86,-16.448 16.45,-16.448Zm-143.231,-50.027l132.261,-0c42.49,-0 77.44,34.95 77.44,77.441l-0,131.578c-0,42.491 -34.95,77.442 -77.44,77.442l-132.261,-0c-42.489,-0 -77.44,-34.951 -77.44,-77.442l-0,-131.578c-0,-42.491 34.951,-77.441 77.44,-77.441Z" style="fill:#fff;"/></g></svg>