<?xml version="1.0" encoding="UTF-8" standalone="no"?><!DOCTYPE svg PUBLIC "-//W3C//DTD SVG 1.1//EN" "http://www.w3.org/Graphics/SVG/1.1/DTD/svg11.dtd"><svg width="100%" height="100%" viewBox="0 0 500 500" version="1.1" xmlns="http://www.w3.org/2000/svg" xmlns:xlink="http://www.w3.org/1999/xlink" xml:space="preserve" xmlns:serif="http://www.serif.com/" style="fill-rule:evenodd;clip-rule:evenodd;stroke-linejoin:round;stroke-miterlimit:2;"><g><path d="M474.845,250c-0,124.181 -100.67,224.848 -224.85,224.848c-124.18,-0 -224.84,-100.667 -224.84,-224.848c0,-124.179 100.66,-224.848 224.84,-224.848c124.18,0 224.85,100.669 224.85,224.848Z" style="fill:#231f20;"/><path d="M252.485,210.036c-11.08,-58.346 59.09,-93.058 100.44,-50.96c0,-0 18.47,-5.17 34.72,-15.51c0,-0 -5.91,19.942 -25.85,32.496c0,0 22.15,-2.953 31.76,-8.863c0,0 -9.61,19.942 -27.33,27.327c9.6,133.681 -134.42,214.922 -251.11,148.452c-0,-0 57.61,2.954 81.98,-25.111c-0,-0 -35.45,2.953 -53.18,-39.883c0,-0 13.3,5.171 26.59,-1.477c0,-0 -41.36,-6.648 -45.05,-56.131c0,0 13.29,10.34 28.06,6.648c0,-0 -45.79,-27.327 -19.94,-76.811c0,-0 48.75,62.04 118.91,59.823Z" style="fill:#fff;"/></g></svg>