<?xml version="1.0" encoding="UTF-8" standalone="no"?><!DOCTYPE svg PUBLIC "-//W3C//DTD SVG 1.1//EN" "http://www.w3.org/Graphics/SVG/1.1/DTD/svg11.dtd"><svg width="100%" height="100%" viewBox="0 0 417 417" version="1.1" xmlns="http://www.w3.org/2000/svg" xmlns:xlink="http://www.w3.org/1999/xlink" xml:space="preserve" xmlns:serif="http://www.serif.com/" style="fill-rule:evenodd;clip-rule:evenodd;stroke-linecap:round;stroke-linejoin:round;stroke-miterlimit:1.5;"><path d="M75,206.25c0,0 125.577,-186.205 266.667,0" style="fill:none;stroke:#000;stroke-width:12.5px;"/><path d="M341.596,208.683c0,-0 -125.261,186.417 -266.666,0.452" style="fill:none;stroke:#000;stroke-width:12.5px;"/><path d="M170.833,241.667c1.675,2.702 30.983,-28.041 72.917,-0" style="fill:none;stroke:#000;stroke-width:12.5px;"/><circle cx="207.292" cy="207.292" r="57.292" style="fill:none;stroke:#000;stroke-width:12.5px;"/><circle cx="208.333" cy="206.25" r="18.75" style="fill:none;stroke:#000;stroke-width:12.5px;"/><path d="M72.917,127.083l-0,-54.166c-0,-0 37.5,-1.577 37.5,-0" style="fill:none;stroke:#000;stroke-width:12.5px;"/><path d="M283.333,72.917l58.334,-0l-0,56.25" style="fill:none;stroke:#000;stroke-width:12.5px;"/><path d="M75,285.417l0,56.25l54.167,-0" style="fill:none;stroke:#000;stroke-width:12.5px;"/><path d="M308.333,343.75l33.334,0l-0,-58.333" style="fill:none;stroke:#000;stroke-width:12.5px;"/><circle cx="129.167" cy="72.917" r="6.25" style="stroke:#000;stroke-width:1.39px;"/><circle cx="287.5" cy="343.75" r="6.25" style="stroke:#000;stroke-width:1.39px;"/></svg>