<?xml version="1.0" encoding="UTF-8" standalone="no"?><!DOCTYPE svg PUBLIC "-//W3C//DTD SVG 1.1//EN" "http://www.w3.org/Graphics/SVG/1.1/DTD/svg11.dtd"><svg width="100%" height="100%" viewBox="0 0 150 150" version="1.1" xmlns="http://www.w3.org/2000/svg" xmlns:xlink="http://www.w3.org/1999/xlink" xml:space="preserve" xmlns:serif="http://www.serif.com/" style="fill-rule:evenodd;clip-rule:evenodd;stroke-linejoin:round;stroke-miterlimit:2;"><g><path d="M143.218,127.232l-2.118,0l-4.306,-7.271l-0.072,0.07l0,7.201l-2.116,0l-0,-10.589l2.116,-0l4.306,7.268l0.072,-0.068l-0,-7.2l2.118,-0l-0,10.589Zm-12.423,-6.285c0,-0.846 -0.212,-1.481 -0.635,-2.048c-0.356,-0.492 -0.919,-0.774 -1.695,-0.774c-0.706,-0 -1.273,0.282 -1.696,0.774c-0.353,0.567 -0.562,1.202 -0.562,2.048l0,1.978c0,0.845 0.209,1.482 0.562,2.045c0.423,0.496 0.99,0.777 1.696,0.777c0.776,0 1.339,-0.281 1.762,-0.777c0.356,-0.563 0.568,-1.2 0.568,-2.045l0,-1.978Zm2.118,1.978c0,1.269 -0.356,2.33 -1.203,3.174c-0.845,0.85 -1.906,1.273 -3.245,1.273c-1.273,-0 -2.33,-0.423 -3.176,-1.273c-0.779,-0.844 -1.201,-1.905 -1.201,-3.174l-0,-1.908c-0,-1.339 0.422,-2.398 1.201,-3.245c0.846,-0.846 1.903,-1.269 3.176,-1.269c1.339,0 2.4,0.423 3.245,1.269c0.847,0.847 1.203,1.906 1.203,3.245l0,1.908Zm-10.66,4.307l-2.115,0l-0,-10.589l2.115,-0l-0,10.589Zm-3.458,-8.966l-2.963,-0l-0,8.966l-2.119,0l0,-8.966l-3.036,-0l0,-1.623l8.118,-0l0,1.623Zm-14.398,5.083l2.682,-0l-1.273,-4.235l-0.07,0l-1.339,4.235Zm3.245,1.621l-3.739,0l-0.708,2.262l-2.186,0l3.668,-10.589l2.19,-0l3.599,10.589l-2.119,0l-0.705,-2.262Zm-12.492,0.635l5.223,0l-0,1.627l-7.764,0l0,-1.062l5.011,-7.904l-5.011,-0l0,-1.623l7.623,-0l-0,1.058l-5.082,7.904Zm-4.233,1.627l-2.19,0l0,-10.589l2.19,-0l-0,10.589Zm-12.567,-10.589l2.755,7.836l2.751,-7.836l2.753,-0l0,10.589l-2.119,0l-0,-3.18l0.213,-4.656l-2.894,7.836l-1.409,0l-2.824,-7.836l-0.07,-0l0.212,4.656l0,3.18l-2.118,0l-0,-10.589l2.75,-0Zm-4.87,10.589l-2.116,0l-0,-10.589l2.116,-0l0,10.589Zm-3.456,-8.966l-3.033,-0l-0,8.966l-2.12,0l0,-8.966l-2.965,-0l0,-1.623l8.118,-0l0,1.623Zm-14.963,3.46l2.118,0c0.633,0 1.056,-0.144 1.338,-0.427c0.354,-0.352 0.494,-0.776 0.494,-1.268c-0,-0.494 -0.14,-0.917 -0.494,-1.271c-0.282,-0.353 -0.705,-0.494 -1.338,-0.494l-2.118,-0l-0,3.46Zm-0,1.693l-0,3.813l-2.12,0l0,-10.589l4.238,-0c1.197,-0 2.188,0.283 2.892,0.917c0.705,0.634 1.058,1.413 1.058,2.471c-0,0.986 -0.353,1.836 -1.058,2.469c-0.704,0.564 -1.695,0.919 -2.892,0.919l-2.118,-0Zm-5.929,-2.472c-0,-0.846 -0.212,-1.481 -0.564,-2.048c-0.425,-0.492 -0.989,-0.774 -1.765,-0.774c-0.706,-0 -1.271,0.282 -1.625,0.774c-0.423,0.567 -0.635,1.202 -0.635,2.048l-0,1.978c-0,0.845 0.212,1.482 0.635,2.045c0.354,0.496 0.919,0.777 1.695,0.777c0.706,0 1.27,-0.281 1.695,-0.777c0.422,-0.563 0.564,-1.2 0.564,-2.045l-0,-1.978Zm2.186,1.978c0,1.269 -0.425,2.33 -1.269,3.174c-0.846,0.85 -1.906,1.273 -3.176,1.273c-1.341,-0 -2.4,-0.423 -3.246,-1.273c-0.78,-0.844 -1.202,-1.905 -1.202,-3.174l-0,-1.908c-0,-1.339 0.422,-2.398 1.202,-3.245c0.846,-0.846 1.905,-1.269 3.176,-1.269c1.34,0 2.4,0.423 3.246,1.269c0.844,0.847 1.269,1.906 1.269,3.245l0,1.908Zm-19.762,-1.837l1.553,0c0.564,0 0.988,-0.141 1.341,-0.353c0.281,-0.212 0.422,-0.562 0.422,-1.057c-0,-0.424 -0.141,-0.85 -0.494,-1.059c-0.281,-0.212 -0.705,-0.353 -1.34,-0.353l-1.482,-0l0,2.822Zm0,1.484l0,3.033l1.976,0c0.565,0 0.988,-0.139 1.271,-0.35c0.353,-0.285 0.494,-0.635 0.494,-1.132c0,-0.494 -0.141,-0.847 -0.425,-1.129c-0.21,-0.281 -0.634,-0.422 -1.199,-0.422l-2.117,-0Zm-2.119,4.66l-0,-10.589l3.601,-0c1.27,-0 2.188,0.212 2.896,0.706c0.704,0.494 1.057,1.199 1.057,2.188c0,0.494 -0.141,0.918 -0.353,1.341c-0.282,0.351 -0.635,0.635 -1.127,0.848c0.633,0.141 1.057,0.424 1.409,0.915c0.282,0.423 0.494,0.919 0.494,1.553c-0,0.99 -0.353,1.766 -1.058,2.258c-0.633,0.568 -1.625,0.78 -2.824,0.78l-4.095,0Zm-2.047,-4.66l-4.373,-0l-0,3.033l5.151,0l0,1.627l-7.34,0l-0,-10.589l7.269,-0l0,1.623l-5.08,-0l-0,2.681l4.373,0l-0,1.625Zm-11.362,1.339l0.071,0l1.483,-7.268l2.117,-0l-2.54,10.589l-1.978,0l-1.906,-6.989l-0.07,-0l-1.906,6.989l-1.976,0l-2.541,-10.589l2.12,-0l1.549,7.268l1.978,-7.268l1.623,-0l1.976,7.268Z" style="fill:#030404;fill-rule:nonzero;"/><path d="M74.258,37.875c9.74,0 18.28,5.152 23.01,12.915l-2.188,1.27c-4.376,-6.917 -12.068,-11.574 -20.822,-11.574c-13.552,-0 -24.493,10.939 -24.493,24.491c0,5.857 2.12,11.292 5.578,15.459c-0.637,0.634 -1.27,1.268 -1.837,1.904c-3.953,-4.657 -6.353,-10.729 -6.353,-17.363c0,-14.965 12.143,-27.102 27.105,-27.102Zm23.01,12.915l0.211,0.284c2.4,4.091 3.812,8.821 3.812,13.903c-0,6.634 -2.399,12.706 -6.353,17.363c-0.564,-0.636 -1.128,-1.27 -1.762,-1.904c3.456,-4.167 5.506,-9.602 5.506,-15.459c-0,-4.449 -1.132,-8.611 -3.179,-12.141l-0.423,-0.776l2.188,-1.27Zm-21.174,13.976c-0,-1.059 -0.777,-1.906 -1.836,-1.906c-1.058,-0 -1.905,0.847 -1.905,1.906c0,0.985 0.847,1.836 1.905,1.836c1.059,0 1.836,-0.851 1.836,-1.836Zm-6.495,-19.977l-0.637,-2.471l-1.339,0.356l0.636,2.469l0.423,0.284l0.421,0.212l0.285,-0.424l0.211,-0.426Zm-5.01,1.836l-1.271,-2.188l-1.198,0.706l1.268,2.188l0.494,0.141l0.497,0.141l0.141,-0.494l0.069,-0.494Zm-4.307,3.105l-1.833,-1.762l-0.99,0.987l1.837,1.835l0.986,0l-0,-1.06Zm-3.388,4.166l-2.257,-1.272l-0.707,1.203l2.188,1.266l0.072,0l0.495,-0.139l0.494,-0.07l-0.141,-0.494l-0.144,-0.494Zm-2.257,4.87l-2.47,-0.707l-0.353,1.413l2.469,0.633l0.423,-0.21l0.496,-0.282l-0.284,-0.423l-0.281,-0.424Zm-0.849,5.294l-2.538,-0l0,1.411l2.538,-0l0.708,-0.705l-0.353,-0.355l-0.355,-0.351Zm0.495,5.294l-2.469,0.635l0.353,1.409l2.47,-0.703l0.281,-0.423l0.284,-0.424l-0.496,-0.284l-0.423,-0.21Zm1.835,5.012l-2.188,1.27l0.707,1.2l2.257,-1.272l0.144,-0.494l0.141,-0.493l-0.494,-0.07l-0.567,-0.141Zm35.503,1.198l2.189,1.272l0.705,-1.2l-2.189,-1.27l-0.493,0.141l-0.494,0.07l0.141,0.493l0.141,0.494Zm2.189,-4.869l2.472,0.703l0.35,-1.409l-2.4,-0.635l-0.493,0.21l-0.422,0.284l0.281,0.424l0.212,0.423Zm0.916,-5.224l2.542,-0l0,-1.411l-2.542,-0l-0.352,0.351l-0.424,0.355l0.424,0.351l0.352,0.354Zm-0.494,-5.366l2.4,-0.633l-0.35,-1.413l-2.472,0.707l-0.212,0.424l-0.281,0.423l0.422,0.282l0.493,0.21Zm-1.906,-5.012l2.189,-1.266l-0.705,-1.203l-2.189,1.272l-0.141,0.494l-0.141,0.494l0.494,0.07l0.493,0.139Zm-3.105,-4.303l1.767,-1.835l-0.991,-0.987l-1.762,1.762l-0,1.06l0.986,0Zm-4.097,-3.459l1.274,-2.188l-1.274,-0.706l-1.268,2.188l0.142,0.494l0.141,0.494l0.494,-0.141l0.491,-0.141Zm-4.868,-2.188l0.638,-2.469l-1.414,-0.356l-0.635,2.471l0.284,0.426l0.212,0.424l0.421,-0.212l0.494,-0.284Zm-5.291,-0.918l0,-2.541l-1.412,0l0,2.541l0.352,0.423l0.353,0.354l0.354,-0.354l0.353,-0.423Zm3.526,20.541c0,-2.401 -1.905,-4.306 -4.233,-4.306c-2.331,-0 -4.234,1.905 -4.234,4.306c0,2.329 1.903,4.236 4.234,4.236c2.328,0 4.233,-1.907 4.233,-4.236Zm-4.233,-25.906c9.318,0 17.434,4.944 22.024,12.354l-2.191,1.2c-4.094,-6.634 -11.436,-11.08 -19.833,-11.08c-12.917,0 -23.365,10.514 -23.365,23.432c-0,5.574 1.98,10.727 5.297,14.823c-0.637,0.563 -1.202,1.128 -1.766,1.762c-3.74,-4.444 -6.068,-10.305 -6.068,-16.585c0,-14.327 11.574,-25.906 25.902,-25.906Zm22.024,12.354l0.139,0.282c2.33,3.882 3.67,8.399 3.67,13.27c-0,6.28 -2.259,12.141 -6.068,16.585c-0.566,-0.634 -1.132,-1.199 -1.697,-1.762c3.318,-4.096 5.294,-9.249 5.294,-14.823c-0,-4.238 -1.128,-8.188 -3.105,-11.645l-0.424,-0.707l2.191,-1.2Zm-22.024,-14.824c15.668,0 28.374,12.705 28.374,28.376c-0,15.67 -12.706,28.374 -28.374,28.374c-15.67,-0 -28.373,-12.704 -28.373,-28.374c0,-15.671 12.703,-28.376 28.373,-28.376Zm-32.749,37.55c0.703,2.611 1.765,5.082 3.034,7.341l-3.738,4.73c-1.202,1.552 -1.062,3.74 0.351,5.152l6.423,6.421c1.341,1.344 3.53,1.485 5.08,0.283l4.659,-3.741c2.473,1.414 5.011,2.473 7.694,3.247l0.705,6.002c0.212,1.973 1.838,3.457 3.813,3.457l9.105,0c1.906,0 3.598,-1.484 3.808,-3.457l0.637,-5.791c2.894,-0.705 5.647,-1.832 8.19,-3.317l4.518,3.6c1.548,1.202 3.738,1.061 5.15,-0.283l6.424,-6.421c1.409,-1.412 1.483,-3.6 0.28,-5.152l-3.527,-4.45c1.48,-2.539 2.611,-5.222 3.386,-8.044l5.437,-0.636c1.906,-0.211 3.388,-1.835 3.388,-3.811l-0,-9.104c-0,-1.907 -1.482,-3.6 -3.388,-3.811l-5.365,-0.636c-0.706,-2.753 -1.837,-5.436 -3.247,-7.906l3.316,-4.162c1.203,-1.556 1.059,-3.744 -0.28,-5.153l-6.424,-6.426c-1.412,-1.339 -3.602,-1.48 -5.15,-0.28l-4.026,3.177c-2.611,-1.483 -5.435,-2.683 -8.327,-3.46l-0.638,-5.223c-0.211,-1.974 -1.903,-3.458 -3.812,-3.458l-9.102,0c-1.977,0 -3.601,1.484 -3.813,3.458l-0.635,5.223c-3.035,0.777 -5.856,1.977 -8.541,3.601l-4.235,-3.318c-1.55,-1.2 -3.739,-1.059 -5.08,0.28l-6.423,6.426c-1.413,1.409 -1.553,3.597 -0.351,5.153l3.527,4.445c-1.414,2.469 -2.471,5.225 -3.176,7.976l-5.577,0.635c-1.976,0.282 -3.458,1.906 -3.458,3.882l0,9.106c0,1.903 1.482,3.527 3.458,3.809l5.93,0.636Zm39.596,-18.421l-4.025,6.917c-0.563,-0.705 -1.41,-1.199 -2.327,-1.34l4.023,-6.918l1.198,-0.635l1.131,-0.707l-0,2.683Z" style="fill:#211e1f;"/></g></svg>