<?xml version="1.0" encoding="UTF-8" standalone="no"?><!DOCTYPE svg PUBLIC "-//W3C//DTD SVG 1.1//EN" "http://www.w3.org/Graphics/SVG/1.1/DTD/svg11.dtd"><svg width="100%" height="100%" viewBox="0 0 150 150" version="1.1" xmlns="http://www.w3.org/2000/svg" xmlns:xlink="http://www.w3.org/1999/xlink" xml:space="preserve" xmlns:serif="http://www.serif.com/" style="fill-rule:evenodd;clip-rule:evenodd;stroke-linejoin:round;stroke-miterlimit:2;"><g><path d="M143.114,125.252c-0.343,0.515 -0.945,0.949 -1.806,1.377c-0.775,0.347 -1.803,0.602 -3.097,0.602c-1.547,0 -2.838,-0.515 -3.87,-1.464c-0.943,-1.03 -1.462,-2.32 -1.462,-3.869l-0,-2.666c-0,-1.632 0.432,-2.836 1.462,-3.87c0.944,-0.943 2.153,-1.46 3.7,-1.46c1.547,-0 2.751,0.343 3.611,1.117c0.862,0.774 1.292,1.807 1.292,3.098l-2.496,-0c0,-0.691 -0.258,-1.206 -0.602,-1.634c-0.432,-0.345 -1.033,-0.604 -1.72,-0.604c-0.861,0 -1.462,0.345 -1.978,0.947c-0.431,0.6 -0.69,1.376 -0.69,2.319l0,2.753c0,0.95 0.259,1.807 0.779,2.411c0.513,0.602 1.115,0.857 1.974,0.857c0.602,-0 1.12,-0 1.464,-0.172c0.43,-0.083 0.688,-0.257 0.858,-0.43l0,-2.408l-2.322,0l-0,-1.804l4.903,0l0,4.9Zm-12.384,1.808l-2.581,-0l-5.16,-8.858l-0.087,-0l0,8.858l-2.577,-0l-0,-12.988l2.577,-0l5.247,8.86l0,-8.86l2.581,-0l-0,12.988Zm-12.986,-0l-2.581,-0l0,-12.988l2.581,-0l0,12.988Zm-5.247,-0l-2.581,-0l-5.158,-8.858l-0.087,-0l0,8.858l-2.579,-0l0,-12.988l2.579,-0l5.245,8.86l0,-8.86l2.581,-0l0,12.988Zm-12.642,-1.808c-0.43,0.515 -1.032,0.949 -1.806,1.377c-0.862,0.347 -1.807,0.602 -3.096,0.602c-1.549,0 -2.839,-0.515 -3.869,-1.464c-1.032,-1.03 -1.464,-2.32 -1.464,-3.869l-0,-2.666c-0,-1.632 0.432,-2.836 1.375,-3.87c1.034,-0.943 2.238,-1.46 3.788,-1.46c1.546,-0 2.749,0.343 3.61,1.117c0.775,0.774 1.203,1.807 1.29,3.098l-2.496,-0c-0.085,-0.691 -0.257,-1.206 -0.687,-1.634c-0.343,-0.345 -0.945,-0.604 -1.717,-0.604c-0.777,0 -1.379,0.345 -1.894,0.947c-0.515,0.6 -0.688,1.376 -0.688,2.319l-0,2.753c-0,0.95 0.26,1.807 0.688,2.411c0.515,0.602 1.204,0.857 2.064,0.857c0.602,-0 1.117,-0 1.461,-0.172c0.345,-0.083 0.601,-0.257 0.862,-0.43l-0,-2.408l-2.323,0l0,-1.804l4.902,0l-0,4.9Zm-12.558,1.808l-2.575,-0l-0,-12.988l2.575,-0l0,12.988Zm-7.309,-3.442c0,-0.426 -0.173,-0.856 -0.517,-1.203c-0.343,-0.259 -0.945,-0.517 -1.892,-0.861c-1.46,-0.428 -2.666,-0.945 -3.438,-1.545c-0.775,-0.604 -1.203,-1.464 -1.203,-2.496c-0,-1.03 0.428,-1.977 1.373,-2.581c0.864,-0.687 2.064,-1.03 3.442,-1.03c1.46,-0 2.58,0.343 3.526,1.117c0.862,0.774 1.29,1.721 1.29,2.838l-2.581,-0c0,-0.602 -0.173,-1.031 -0.603,-1.374c-0.342,-0.432 -0.944,-0.604 -1.632,-0.604c-0.691,0 -1.289,0.172 -1.634,0.517c-0.344,0.259 -0.602,0.687 -0.602,1.117c-0,0.432 0.258,0.774 0.602,1.117c0.43,0.259 1.117,0.515 2.15,0.862c1.376,0.429 2.493,0.945 3.268,1.547c0.689,0.689 1.032,1.551 1.032,2.579c0,1.119 -0.428,1.978 -1.29,2.668c-0.861,0.604 -1.978,0.945 -3.441,0.945c-1.463,0 -2.663,-0.43 -3.697,-1.118c-1.032,-0.687 -1.548,-1.719 -1.548,-3.01l-0,-0.085l2.582,0c0,0.774 0.172,1.291 0.687,1.719c0.43,0.344 1.117,0.515 1.976,0.515c0.688,0 1.205,-0.171 1.633,-0.428c0.344,-0.345 0.517,-0.689 0.517,-1.206Zm-9.459,-2.237l-5.334,-0l0,3.613l6.192,-0l0,2.066l-8.854,-0l-0,-12.988l8.854,-0l0,1.979l-6.192,-0l0,3.264l5.334,0l-0,2.066Zm-17.288,-5.33l0,8.943l1.721,-0c0.949,-0 1.635,-0.257 2.15,-0.945c0.516,-0.602 0.774,-1.374 0.774,-2.41l0,-2.147c0,-1.034 -0.258,-1.805 -0.774,-2.494c-0.515,-0.602 -1.201,-0.947 -2.15,-0.947l-1.721,-0Zm-2.577,11.009l-0,-12.988l4.383,-0c1.635,-0 2.924,0.517 3.956,1.549c1.034,0.949 1.549,2.324 1.549,3.871l-0,2.147c-0,1.553 -0.515,2.84 -1.549,3.87c-1.032,1.034 -2.321,1.551 -3.956,1.551l-4.383,-0Zm-13.676,-7.568l1.892,0c0.688,0 1.205,-0.177 1.634,-0.432c0.345,-0.258 0.517,-0.688 0.517,-1.203c-0,-0.602 -0.172,-1.031 -0.517,-1.374c-0.429,-0.259 -0.946,-0.432 -1.721,-0.432l-1.805,-0l-0,3.441Zm-0,1.806l-0,3.696l2.409,-0c0.688,-0 1.203,-0.083 1.549,-0.43c0.426,-0.255 0.6,-0.772 0.6,-1.287c-0,-0.687 -0.174,-1.121 -0.515,-1.464c-0.257,-0.345 -0.774,-0.515 -1.463,-0.515l-2.58,-0Zm-2.58,5.762l0,-12.988l4.385,-0c1.549,-0 2.753,0.347 3.524,0.86c0.864,0.604 1.293,1.551 1.293,2.668c-0,0.602 -0.085,1.202 -0.429,1.632c-0.343,0.519 -0.775,0.862 -1.379,1.035c0.776,0.17 1.379,0.516 1.723,1.114c0.43,0.517 0.6,1.119 0.6,1.896c-0,1.202 -0.429,2.149 -1.206,2.751c-0.858,0.688 -1.973,1.032 -3.522,1.032l-4.989,-0Zm-2.494,-5.679l-5.331,-0l-0,3.613l6.275,-0l-0,2.066l-8.855,-0l0,-12.988l8.855,-0l-0,1.979l-6.275,-0l-0,3.264l5.331,0l0,2.066Zm-13.844,1.551l0.083,-0l1.806,-8.86l2.58,-0l-3.011,12.988l-2.407,-0l-2.406,-8.602l-0.086,0l-2.325,8.602l-2.407,-0l-3.011,-12.988l2.494,-0l1.896,8.86l2.491,-8.86l1.892,-0l2.411,8.86Z" style="fill:#030404;fill-rule:nonzero;"/><path d="M54.016,51.578l-2.409,1.891l-3.783,2.926l0,-11.613l3.783,2.923l2.409,1.896l0,-0.087l0.687,0.515l0.689,0.517l-0.689,0.515l-0.687,0.517Zm42.226,-5.935l27.179,-0l0,3.526l-27.179,-0l-0,-3.526Zm-0,4.471l27.179,0l0,3.528l-27.179,0l-0,-3.528Zm-9.46,6.794l6.107,0l0,5.935l6.192,0l0,24.77l-24.856,0l-0,-5.847l-6.191,0l0,-5.937l-6.103,0l-0,-24.853l24.851,0l0,5.932Zm-21.759,36.641l58.828,-0l0,3.437l-58.828,0l0,-3.437Zm31.649,-64.59l5.677,0l-0,5.417l-5.677,-0l0,-5.417Zm9.29,0l5.675,0l0,5.417l-5.675,-0l-0,-5.417Zm9.288,0l5.677,0l-0,5.417l-5.677,-0l-0,-5.417Zm-92.797,-6.19l103.887,-0l-0,17.8l-103.887,0l-0,-17.8Zm42.055,30.786l19.608,0l0,3.353l-16.082,0l0,16.255l-3.526,0l0,-19.608Zm12.299,11.869l19.607,0l-0,19.607l-19.607,-0l0,-19.607Zm-6.105,-5.933l19.606,-0l0,3.352l-16.083,0l-0,16.256l-3.523,-0l0,-19.608Zm55.638,-16.256l-0,56.419l-70.086,-0l-0,-17.289l-8.86,-0l0,17.289l-1.979,-0l0,-23.996l-8.858,-0l0,23.996l-1.892,-0l0,-33.199l-8.945,-0l0,33.199l-3.267,-0l-0,-43.089c-0,0.258 0.17,0.432 0.432,0.432l23.734,-0c0.173,-0 0.432,-0.174 0.432,-0.432l-0,-12.124l-24.598,-0l-0,-1.206l103.887,0Z" style="fill:#211e1f;"/></g></svg>