<?xml version="1.0" encoding="UTF-8" standalone="no"?><!DOCTYPE svg PUBLIC "-//W3C//DTD SVG 1.1//EN" "http://www.w3.org/Graphics/SVG/1.1/DTD/svg11.dtd"><svg width="100%" height="100%" viewBox="0 0 500 500" version="1.1" xmlns="http://www.w3.org/2000/svg" xmlns:xlink="http://www.w3.org/1999/xlink" xml:space="preserve" xmlns:serif="http://www.serif.com/" style="fill-rule:evenodd;clip-rule:evenodd;stroke-linejoin:round;stroke-miterlimit:2;"><path d="M474.845,250c-0,124.18 -100.67,224.85 -224.85,224.85c-124.18,-0 -224.84,-100.67 -224.84,-224.85c0,-124.183 100.66,-224.85 224.84,-224.85c124.18,0 224.85,100.667 224.85,224.85Z" style="fill:#231f20;"/><path d="M160.465,360.472l20.22,-3.61l12.27,-2.17c17.33,9.39 36.11,14.45 57.04,14.45c65.71,-0 119.14,-53.44 119.14,-119.14c0,-65.707 -53.43,-119.138 -119.14,-119.138c-65.7,-0 -119.13,53.431 -119.13,119.138c-0,23.831 7.22,45.49 18.77,64.26l-1.44,10.83l-2.89,21.66l-2.17,16.61l17.33,-2.89Zm89.53,-252.714c78.71,0 142.25,63.54 142.25,142.244c-0,78.7 -63.54,142.24 -142.25,142.24c-21.66,-0 -41.87,-4.33 -59.92,-13l-75.82,13l10.11,-75.09l-0.72,-1.45c-10.11,-19.49 -15.89,-41.869 -15.89,-65.7c0,-78.704 63.54,-142.244 142.24,-142.244Zm-50.54,77.259c7.94,-5.054 13,-1.444 15.89,6.498l7.22,18.773c0,-0 5.05,10.109 -7.95,20.217c-2.16,1.444 -2.16,1.444 -1.44,5.057c2.89,8.66 14.44,34.66 51.27,54.87c3.61,2.17 4.33,2.17 7.94,-0.72c2.89,-2.89 6.5,-6.5 9.38,-9.389c6.5,-5.771 10.11,-7.941 15.89,-3.611c4.33,2.89 8.66,6.5 13,9.39c4.33,3.61 11.55,7.94 4.33,16.61l-6.5,7.94c-9.39,11.55 -17.33,12.27 -29.6,9.39c-46.94,-12.28 -81.59,-45.49 -96.76,-92.425c-5.05,-18.051 2.17,-33.214 17.33,-42.6Z" style="fill:#fff;"/></svg>